PathFileType	4	(X/Y/Z)	c:/Users/goper/Files/vsCode/490R/osim_files/C05/C05_Fast_05.trc
DataRate	CameraRate	NumFrames	NumMarkers	Units                	OrigDataRate	OrigDataStartFrame	OrigNumFrames
250.00	250.00	6	36	mm	250.0	2647	3529
                Frame#	Time	LPSIS			LASIS			LTH1			LTH2			LTH3			LTH4			LLFE			LMFE			LSH1			LSH2			LSH3			LSH4			LLMAL			LMMAL			LCAL			LMTP5			LTOE			LMTP1			RPSIS			RASIS			RTH1			RTH2			RTH3			RTH4			RLFE			RMFE			RSH1			RSH2			RSH3			RSH4			RLMAL			RMMAL			RCAL			RMTP1			RTOE			RMTP5		
		X1	Y1	Z1	X2	Y2	Z2	X3	Y3	Z3	X4	Y4	Z4	X5	Y5	Z5	X6	Y6	Z6	X7	Y7	Z7	X8	Y8	Z8	X9	Y9	Z9	X10	Y10	Z10	X11	Y11	Z11	X12	Y12	Z12	X13	Y13	Z13	X14	Y14	Z14	X15	Y15	Z15	X16	Y16	Z16	X17	Y17	Z17	X18	Y18	Z18	X19	Y19	Z19	X20	Y20	Z20	X21	Y21	Z21	X22	Y22	Z22	X23	Y23	Z23	X24	Y24	Z24	X25	Y25	Z25	X26	Y26	Z26	X27	Y27	Z27	X28	Y28	Z28	X29	Y29	Z29	X30	Y30	Z30	X31	Y31	Z31	X32	Y32	Z32	X33	Y33	Z33	X34	Y34	Z34	X35	Y35	Z35	X36	Y36	Z36

2647	10.58400	-2033.53052	1046.58740	364.44861	-2232.54248	1019.00146	418.17523	-2255.32300	709.93481	470.30981	-2294.26001	659.91174	464.09125	-2319.76807	749.86981	472.61191	-2348.37793	695.95105	463.58627	-2374.91284	587.12793	446.49591	-2388.78198	579.66638	330.35803	-2273.90625	421.59198	454.30923	0.00000	0.00000	0.00000	-2334.93506	411.89047	471.26398	-2324.08374	370.05484	466.01678	-2265.81396	148.64554	437.66321	-2307.27148	153.63664	359.36520	-2213.76660	116.35365	377.67987	-2393.85693	81.45557	487.89233	-2438.18262	102.53561	431.82809	-2431.78540	81.33193	385.04562	-2038.81091	1060.39404	256.59738	-2232.72925	1023.76648	187.37505	-2092.46777	681.53674	145.37555	-2100.18408	620.95056	160.02380	-2167.92358	685.76917	149.58925	-2165.57056	624.18134	162.89006	0.00000	0.00000	0.00000	-2129.50952	530.12933	182.15222	-2023.39050	385.75076	172.14680	-2020.65698	337.92944	179.81511	-2083.56055	373.58908	178.23227	-2072.07568	328.88718	185.45206	-1995.34839	106.52971	235.55049	-2017.37085	116.79168	319.51694	-1929.45667	79.30157	283.80801	-2146.66846	45.84734	304.82770	-2166.02271	69.20261	256.20383	-2114.90894	42.71812	193.52661
2648	10.58800	-2039.57288	1045.94653	364.74207	-2238.25635	1018.35394	418.06296	-2260.61963	709.02161	470.37994	-2299.83301	659.46838	464.27930	-2325.50757	749.52301	472.62955	-2353.95410	695.42474	463.57941	-2380.45776	586.70776	446.56723	-2394.22949	579.04004	330.78928	-2283.07788	418.30551	454.66119	-2283.58862	374.94479	455.04684	-2344.59839	410.54974	471.78320	-2334.66919	368.29095	466.57431	-2283.07178	145.06273	438.20184	-2324.77759	151.14694	360.02573	-2231.85425	111.51530	378.24054	-2412.04175	81.27191	488.65015	-2456.95068	103.71894	432.79193	-2450.95947	82.19457	385.90652	-2044.34949	1059.83826	256.97147	-2238.33716	1023.20081	187.33170	-2095.12378	681.59174	145.42726	-2100.86792	618.85583	163.29437	-2170.61060	685.34058	149.46417	-2167.97290	623.74097	162.63170	0.00000	0.00000	0.00000	-2131.20044	529.95844	181.73369	-2024.46533	385.88904	172.11668	-2021.51819	338.14651	179.80475	-2084.55103	373.49796	178.11893	-2072.90649	328.90100	185.29767	-1995.52747	106.71056	235.64404	-2017.59326	116.90636	319.60312	-1929.57202	79.49968	283.88031	-2146.71704	45.70335	304.81107	-2166.10767	69.02105	256.21786	-2114.94116	42.67526	193.51706
2649	10.59200	-2045.14246	1045.37305	365.15112	-2244.03711	1017.70282	417.93011	-2266.53418	708.87250	471.04050	-2304.44287	658.71082	463.88419	-2331.11841	748.99579	472.62357	-2359.63379	694.80695	463.68231	-2385.77490	586.11346	446.62640	-2399.54541	578.29462	331.16690	-2292.12451	415.00668	454.97595	0.00000	0.00000	0.00000	-2353.81641	409.04132	472.24680	-2345.06543	366.48795	467.04361	-2300.34570	141.71455	438.78961	-2342.08984	148.90581	360.78967	-2250.48462	106.48560	379.35394	-2430.91138	81.35250	489.46207	-2475.03247	105.02975	433.66772	-2470.01978	83.31721	386.74768	-2049.71118	1059.21899	257.38205	-2243.36401	1022.41425	187.15570	-2097.76392	681.65619	145.43777	-2105.33569	620.96338	159.42067	-2173.35815	684.92828	149.34067	-2170.32422	623.32214	162.40614	0.00000	0.00000	0.00000	-2132.92041	529.65814	181.38231	-2025.53027	386.08505	172.07410	-2022.45007	338.30005	179.81796	-2085.59375	373.39410	178.01230	-2073.89014	328.88226	185.19928	-1995.71118	106.86496	235.73865	-2017.78064	116.97685	319.67487	-1929.69348	79.67129	283.97595	-2146.70215	45.53053	304.78790	-2166.18188	68.81125	256.23477	-2114.95190	42.64490	193.52544
2650	10.59600	-2050.85522	1044.61609	365.48642	-2249.77686	1016.97729	417.82913	-2271.80225	708.19159	471.22153	-2310.71118	658.19360	464.74393	-2336.62671	748.26257	472.66370	-2364.89673	694.15967	463.49585	-2390.97314	585.37109	446.73465	-2404.56519	577.31311	331.49332	-2301.19946	411.61331	455.27356	0.00000	0.00000	0.00000	-2362.64014	407.48251	472.69827	-2355.41968	364.77335	467.56866	-2317.73267	138.20459	439.44019	-2359.37354	146.81702	361.31775	-2269.08984	102.19921	379.94528	-2449.80200	81.70805	490.28162	-2493.54199	106.64140	434.43185	-2489.13452	84.84723	387.64142	-2055.00903	1058.55273	257.79425	-2248.62744	1021.64868	187.01808	-2100.60767	681.58197	145.45580	-2107.76001	620.36810	160.49902	-2176.07495	684.51117	149.21158	-2172.74902	622.91150	162.15285	0.00000	0.00000	0.00000	-2134.69629	529.23401	181.26241	-2026.72864	386.20129	172.09027	-2023.52222	338.44458	179.81502	-2086.73242	373.39484	177.81996	-2074.78320	328.83246	185.10590	-1995.95142	107.04296	235.84550	-2018.06506	117.06118	319.75653	-1929.84473	79.88348	284.06100	-2146.77368	45.38145	304.76999	-2166.34351	68.59243	256.16989	-2114.97949	42.61361	193.48845
2651	10.60000	-2056.56128	1043.97766	365.83810	-2255.56934	1016.23566	417.77277	-2277.25269	707.55237	471.59161	-2315.19312	657.19824	464.38312	-2342.05908	747.49786	472.63611	-2370.23267	693.28967	463.52188	-2396.02539	584.49384	446.86475	-2409.58154	576.24780	331.77634	-2310.17334	408.31766	455.45868	0.00000	0.00000	0.00000	-2371.87866	406.08344	473.12692	-2365.68848	363.09863	468.05139	-2334.88184	135.28046	440.01413	-2376.32812	144.93266	362.06644	-2287.56763	97.62297	380.32297	-2468.66064	82.49242	491.01877	-2511.41553	108.46981	434.79611	-2508.03247	86.60387	388.44858	-2060.49219	1057.86755	258.23663	-2253.87451	1020.84698	186.85156	-2103.28979	681.58069	145.40500	-2110.27368	620.72974	159.16891	-2178.90479	684.08185	149.08420	-2175.23853	622.44073	161.95975	0.00000	0.00000	0.00000	-2136.63818	528.90924	181.02184	-2028.02686	386.32849	172.10468	-2024.44287	338.66931	179.77364	-2087.88647	373.25708	177.74669	-2076.21558	329.10632	185.11678	-1996.14172	107.23672	235.92734	-2018.37988	117.16081	319.85587	-1929.95471	80.13438	284.13272	-2146.80688	45.27158	304.75909	-2166.48340	68.42463	256.13684	-2115.02441	42.59653	193.48164
2652	10.60400	-2062.06567	1043.20508	366.25858	-2261.48486	1015.46167	417.70389	-2282.58228	706.73706	471.97159	-2320.76294	656.37402	465.02106	-2347.28711	746.51208	472.57086	-2375.41162	692.28961	463.50104	-2400.97437	583.51312	447.03116	-2414.45215	574.99530	332.04718	-2318.86108	404.98621	455.51419	0.00000	0.00000	0.00000	-2380.66382	404.60559	473.50949	-2375.75879	361.43262	468.53247	-2352.27246	132.49350	440.54306	-2394.11719	143.55771	362.41003	-2305.88086	93.58537	379.99362	-2487.49048	83.48526	491.77066	-2529.86694	110.72095	435.62912	-2526.78003	88.79683	389.26349	-2066.14136	1057.24341	258.65176	-2259.00586	1019.98340	186.73317	-2106.20337	681.49005	145.42613	-2112.56299	620.59949	159.40527	-2181.75220	683.62531	148.91745	-2177.82739	622.04181	161.68381	0.00000	0.00000	0.00000	-2138.51880	528.61267	180.74190	-2029.29346	386.49796	172.04053	-2025.44519	338.88950	179.77959	-2089.14648	373.18417	177.64095	-2076.85522	328.80579	184.88797	-1996.39209	107.49615	235.99010	-2018.66663	117.29585	319.93768	-1930.08105	80.41629	284.20087	-2146.89526	45.20416	304.71725	-2166.56226	68.26592	256.08640	-2114.99976	42.56780	193.43307
